<mxfile host="app.diagrams.net" agent="Mozilla/5.0 (Windows NT 10.0; Win64; x64) AppleWebKit/537.36 (KHTML, like Gecko) Chrome/126.0.0.0 YaBrowser/24.7.0.0 Safari/537.36" version="24.7.17">
  <diagram name="Page-1" id="58cdce13-f638-feb5-8d6f-7d28b1aa9fa0">
    <mxGraphModel dx="2100" dy="1134" grid="1" gridSize="10" guides="1" tooltips="1" connect="1" arrows="1" fold="1" page="1" pageScale="1" pageWidth="1100" pageHeight="850" background="none" math="0" shadow="0">
      <root>
        <mxCell id="0" />
        <mxCell id="1" parent="0" />
        <mxCell id="382b91b5511bd0f7-6" value="Посмотреть услуги" style="rounded=1;whiteSpace=wrap;html=1;arcSize=24;shadow=0;comic=0;labelBackgroundColor=none;fontFamily=Verdana;fontSize=12;align=center;" parent="1" vertex="1">
          <mxGeometry x="60" y="60" width="120" height="60" as="geometry" />
        </mxCell>
        <mxCell id="SgjmKy2x-hNEDJPNq4OX-2" value="Клиент&lt;div&gt;&lt;br&gt;&lt;/div&gt;" style="shape=umlActor;verticalLabelPosition=bottom;verticalAlign=top;html=1;outlineConnect=0;" vertex="1" parent="1">
          <mxGeometry x="300" y="35" width="70" height="110" as="geometry" />
        </mxCell>
        <mxCell id="SgjmKy2x-hNEDJPNq4OX-4" value="" style="endArrow=classic;html=1;rounded=0;" edge="1" parent="1" source="382b91b5511bd0f7-6" target="SgjmKy2x-hNEDJPNq4OX-2">
          <mxGeometry width="50" height="50" relative="1" as="geometry">
            <mxPoint x="430" y="160" as="sourcePoint" />
            <mxPoint x="330" y="100" as="targetPoint" />
          </mxGeometry>
        </mxCell>
        <mxCell id="SgjmKy2x-hNEDJPNq4OX-5" value="Открыть страницу с предоставляемыми услугами" style="rounded=1;whiteSpace=wrap;html=1;arcSize=24;shadow=0;comic=0;labelBackgroundColor=none;fontFamily=Verdana;fontSize=12;align=center;" vertex="1" parent="1">
          <mxGeometry x="460" y="60" width="120" height="60" as="geometry" />
        </mxCell>
        <mxCell id="SgjmKy2x-hNEDJPNq4OX-6" value="" style="endArrow=classic;html=1;rounded=0;entryX=0;entryY=0.5;entryDx=0;entryDy=0;" edge="1" parent="1" source="SgjmKy2x-hNEDJPNq4OX-2" target="SgjmKy2x-hNEDJPNq4OX-5">
          <mxGeometry width="50" height="50" relative="1" as="geometry">
            <mxPoint x="570" y="120" as="sourcePoint" />
            <mxPoint x="620" y="70" as="targetPoint" />
          </mxGeometry>
        </mxCell>
        <mxCell id="SgjmKy2x-hNEDJPNq4OX-7" value="Выбрать художника" style="rounded=1;whiteSpace=wrap;html=1;arcSize=50;shadow=0;comic=0;labelBackgroundColor=none;fontFamily=Verdana;fontSize=12;align=center;" vertex="1" parent="1">
          <mxGeometry x="760" y="10" width="160" height="60" as="geometry" />
        </mxCell>
        <mxCell id="SgjmKy2x-hNEDJPNq4OX-8" value="Посмотреть портфолио" style="rounded=1;whiteSpace=wrap;html=1;arcSize=50;shadow=0;comic=0;labelBackgroundColor=none;fontFamily=Verdana;fontSize=12;align=center;" vertex="1" parent="1">
          <mxGeometry x="760" y="130" width="160" height="60" as="geometry" />
        </mxCell>
        <mxCell id="SgjmKy2x-hNEDJPNq4OX-9" value="Нажать кнопку заказа без выбора художника" style="rounded=1;whiteSpace=wrap;html=1;arcSize=50;shadow=0;comic=0;labelBackgroundColor=none;fontFamily=Verdana;fontSize=12;align=center;" vertex="1" parent="1">
          <mxGeometry x="500" y="230" width="160" height="60" as="geometry" />
        </mxCell>
        <mxCell id="SgjmKy2x-hNEDJPNq4OX-10" value="Нажать &quot;сделать заказ&quot; у конкретного художника" style="rounded=1;whiteSpace=wrap;html=1;arcSize=50;shadow=0;comic=0;labelBackgroundColor=none;fontFamily=Verdana;fontSize=12;align=center;" vertex="1" parent="1">
          <mxGeometry x="770" y="230" width="160" height="60" as="geometry" />
        </mxCell>
        <mxCell id="SgjmKy2x-hNEDJPNq4OX-11" value="Начать оформление заказа" style="rounded=1;whiteSpace=wrap;html=1;arcSize=50;shadow=0;comic=0;labelBackgroundColor=none;fontFamily=Verdana;fontSize=12;align=center;" vertex="1" parent="1">
          <mxGeometry x="640" y="320" width="160" height="60" as="geometry" />
        </mxCell>
        <mxCell id="SgjmKy2x-hNEDJPNq4OX-12" value="Заполнение данных" style="rounded=1;whiteSpace=wrap;html=1;arcSize=50;shadow=0;comic=0;labelBackgroundColor=none;fontFamily=Verdana;fontSize=12;align=center;" vertex="1" parent="1">
          <mxGeometry x="640" y="425" width="160" height="60" as="geometry" />
        </mxCell>
        <mxCell id="SgjmKy2x-hNEDJPNq4OX-13" value="Получение токена отслеживания товара" style="rounded=1;whiteSpace=wrap;html=1;arcSize=50;shadow=0;comic=0;labelBackgroundColor=none;fontFamily=Verdana;fontSize=12;align=center;" vertex="1" parent="1">
          <mxGeometry x="640" y="650" width="160" height="60" as="geometry" />
        </mxCell>
        <mxCell id="SgjmKy2x-hNEDJPNq4OX-14" value="Оплата заказа" style="rounded=1;whiteSpace=wrap;html=1;arcSize=50;shadow=0;comic=0;labelBackgroundColor=none;fontFamily=Verdana;fontSize=12;align=center;" vertex="1" parent="1">
          <mxGeometry x="640" y="540" width="160" height="60" as="geometry" />
        </mxCell>
        <mxCell id="SgjmKy2x-hNEDJPNq4OX-15" value="" style="endArrow=classic;html=1;rounded=0;exitX=1;exitY=0.5;exitDx=0;exitDy=0;entryX=0;entryY=0.5;entryDx=0;entryDy=0;" edge="1" parent="1" source="SgjmKy2x-hNEDJPNq4OX-5" target="SgjmKy2x-hNEDJPNq4OX-7">
          <mxGeometry width="50" height="50" relative="1" as="geometry">
            <mxPoint x="680" y="210" as="sourcePoint" />
            <mxPoint x="730" y="160" as="targetPoint" />
          </mxGeometry>
        </mxCell>
        <mxCell id="SgjmKy2x-hNEDJPNq4OX-16" value="" style="endArrow=classic;html=1;rounded=0;exitX=0.459;exitY=0.975;exitDx=0;exitDy=0;exitPerimeter=0;entryX=0.461;entryY=0.001;entryDx=0;entryDy=0;entryPerimeter=0;" edge="1" parent="1" source="SgjmKy2x-hNEDJPNq4OX-7" target="SgjmKy2x-hNEDJPNq4OX-8">
          <mxGeometry width="50" height="50" relative="1" as="geometry">
            <mxPoint x="680" y="210" as="sourcePoint" />
            <mxPoint x="730" y="160" as="targetPoint" />
            <Array as="points">
              <mxPoint x="834" y="90" />
            </Array>
          </mxGeometry>
        </mxCell>
        <mxCell id="SgjmKy2x-hNEDJPNq4OX-17" value="" style="endArrow=classic;html=1;rounded=0;exitX=0.5;exitY=1;exitDx=0;exitDy=0;entryX=0.443;entryY=-0.048;entryDx=0;entryDy=0;entryPerimeter=0;" edge="1" parent="1" source="SgjmKy2x-hNEDJPNq4OX-8" target="SgjmKy2x-hNEDJPNq4OX-10">
          <mxGeometry width="50" height="50" relative="1" as="geometry">
            <mxPoint x="740" y="240" as="sourcePoint" />
            <mxPoint x="790" y="190" as="targetPoint" />
          </mxGeometry>
        </mxCell>
        <mxCell id="SgjmKy2x-hNEDJPNq4OX-18" value="" style="endArrow=classic;html=1;rounded=0;exitX=0.817;exitY=0.995;exitDx=0;exitDy=0;exitPerimeter=0;entryX=0.373;entryY=-0.048;entryDx=0;entryDy=0;entryPerimeter=0;" edge="1" parent="1" source="SgjmKy2x-hNEDJPNq4OX-5" target="SgjmKy2x-hNEDJPNq4OX-9">
          <mxGeometry width="50" height="50" relative="1" as="geometry">
            <mxPoint x="710" y="230" as="sourcePoint" />
            <mxPoint x="760" y="180" as="targetPoint" />
          </mxGeometry>
        </mxCell>
        <mxCell id="SgjmKy2x-hNEDJPNq4OX-19" value="" style="endArrow=classic;html=1;rounded=0;exitX=0.948;exitY=0.848;exitDx=0;exitDy=0;exitPerimeter=0;entryX=0.434;entryY=-0.014;entryDx=0;entryDy=0;entryPerimeter=0;" edge="1" parent="1" source="SgjmKy2x-hNEDJPNq4OX-9" target="SgjmKy2x-hNEDJPNq4OX-11">
          <mxGeometry width="50" height="50" relative="1" as="geometry">
            <mxPoint x="740" y="300" as="sourcePoint" />
            <mxPoint x="790" y="250" as="targetPoint" />
          </mxGeometry>
        </mxCell>
        <mxCell id="SgjmKy2x-hNEDJPNq4OX-20" value="" style="endArrow=classic;html=1;rounded=0;exitX=0.25;exitY=1;exitDx=0;exitDy=0;entryX=0.75;entryY=0;entryDx=0;entryDy=0;" edge="1" parent="1" source="SgjmKy2x-hNEDJPNq4OX-10" target="SgjmKy2x-hNEDJPNq4OX-11">
          <mxGeometry width="50" height="50" relative="1" as="geometry">
            <mxPoint x="740" y="300" as="sourcePoint" />
            <mxPoint x="790" y="250" as="targetPoint" />
          </mxGeometry>
        </mxCell>
        <mxCell id="SgjmKy2x-hNEDJPNq4OX-21" value="" style="endArrow=classic;html=1;rounded=0;exitX=0.5;exitY=1;exitDx=0;exitDy=0;entryX=0.5;entryY=0;entryDx=0;entryDy=0;" edge="1" parent="1" source="SgjmKy2x-hNEDJPNq4OX-11" target="SgjmKy2x-hNEDJPNq4OX-12">
          <mxGeometry width="50" height="50" relative="1" as="geometry">
            <mxPoint x="710" y="510" as="sourcePoint" />
            <mxPoint x="760" y="460" as="targetPoint" />
          </mxGeometry>
        </mxCell>
        <mxCell id="SgjmKy2x-hNEDJPNq4OX-22" value="" style="endArrow=classic;html=1;rounded=0;entryX=0.5;entryY=0;entryDx=0;entryDy=0;" edge="1" parent="1" target="SgjmKy2x-hNEDJPNq4OX-14">
          <mxGeometry width="50" height="50" relative="1" as="geometry">
            <mxPoint x="720" y="485" as="sourcePoint" />
            <mxPoint x="760" y="460" as="targetPoint" />
          </mxGeometry>
        </mxCell>
        <mxCell id="SgjmKy2x-hNEDJPNq4OX-23" value="" style="endArrow=classic;html=1;rounded=0;exitX=0.5;exitY=1;exitDx=0;exitDy=0;entryX=0.5;entryY=0;entryDx=0;entryDy=0;" edge="1" parent="1" source="SgjmKy2x-hNEDJPNq4OX-14" target="SgjmKy2x-hNEDJPNq4OX-13">
          <mxGeometry width="50" height="50" relative="1" as="geometry">
            <mxPoint x="720" y="580" as="sourcePoint" />
            <mxPoint x="770" y="530" as="targetPoint" />
          </mxGeometry>
        </mxCell>
        <mxCell id="SgjmKy2x-hNEDJPNq4OX-26" value="" style="ellipse;html=1;shape=endState;fillColor=#000000;strokeColor=#ff0000;" vertex="1" parent="1">
          <mxGeometry x="70" y="890" width="30" height="30" as="geometry" />
        </mxCell>
        <mxCell id="SgjmKy2x-hNEDJPNq4OX-27" value="Главная страница" style="html=1;whiteSpace=wrap;" vertex="1" parent="1">
          <mxGeometry x="30" y="990" width="110" height="50" as="geometry" />
        </mxCell>
        <mxCell id="SgjmKy2x-hNEDJPNq4OX-28" value="" style="endArrow=classic;html=1;rounded=0;exitX=0.5;exitY=1;exitDx=0;exitDy=0;entryX=0.5;entryY=0;entryDx=0;entryDy=0;" edge="1" parent="1" source="SgjmKy2x-hNEDJPNq4OX-26" target="SgjmKy2x-hNEDJPNq4OX-27">
          <mxGeometry width="50" height="50" relative="1" as="geometry">
            <mxPoint x="170" y="950" as="sourcePoint" />
            <mxPoint x="220" y="900" as="targetPoint" />
          </mxGeometry>
        </mxCell>
        <mxCell id="SgjmKy2x-hNEDJPNq4OX-29" value="Подключение пользователя" style="text;align=center;fontStyle=1;verticalAlign=middle;spacingLeft=3;spacingRight=3;strokeColor=none;rotatable=0;points=[[0,0.5],[1,0.5]];portConstraint=eastwest;html=1;" vertex="1" parent="1">
          <mxGeometry x="45" y="860" width="80" height="26" as="geometry" />
        </mxCell>
        <mxCell id="SgjmKy2x-hNEDJPNq4OX-30" value="Страница входа" style="html=1;whiteSpace=wrap;" vertex="1" parent="1">
          <mxGeometry x="220" y="970" width="110" height="50" as="geometry" />
        </mxCell>
        <mxCell id="SgjmKy2x-hNEDJPNq4OX-31" value="" style="endArrow=classic;html=1;rounded=0;exitX=1;exitY=0.5;exitDx=0;exitDy=0;entryX=0;entryY=0.5;entryDx=0;entryDy=0;" edge="1" parent="1" source="SgjmKy2x-hNEDJPNq4OX-27" target="SgjmKy2x-hNEDJPNq4OX-30">
          <mxGeometry width="50" height="50" relative="1" as="geometry">
            <mxPoint x="230" y="1050" as="sourcePoint" />
            <mxPoint x="280" y="1000" as="targetPoint" />
          </mxGeometry>
        </mxCell>
        <mxCell id="SgjmKy2x-hNEDJPNq4OX-32" value="" style="endArrow=classic;html=1;rounded=0;exitX=0.5;exitY=1;exitDx=0;exitDy=0;entryX=0.5;entryY=0;entryDx=0;entryDy=0;" edge="1" parent="1" source="SgjmKy2x-hNEDJPNq4OX-27" target="SgjmKy2x-hNEDJPNq4OX-33">
          <mxGeometry width="50" height="50" relative="1" as="geometry">
            <mxPoint x="210" y="1050" as="sourcePoint" />
            <mxPoint x="85" y="1090" as="targetPoint" />
          </mxGeometry>
        </mxCell>
        <mxCell id="SgjmKy2x-hNEDJPNq4OX-33" value="Страница галереи" style="html=1;whiteSpace=wrap;" vertex="1" parent="1">
          <mxGeometry x="140" y="1090" width="110" height="50" as="geometry" />
        </mxCell>
        <mxCell id="SgjmKy2x-hNEDJPNq4OX-34" value="Страница просмотра отзывов" style="html=1;whiteSpace=wrap;" vertex="1" parent="1">
          <mxGeometry x="280" y="1060" width="110" height="50" as="geometry" />
        </mxCell>
        <mxCell id="SgjmKy2x-hNEDJPNq4OX-35" value="Страница просмотра портфолио художников" style="html=1;whiteSpace=wrap;" vertex="1" parent="1">
          <mxGeometry x="240" y="1160" width="130" height="60" as="geometry" />
        </mxCell>
        <mxCell id="SgjmKy2x-hNEDJPNq4OX-36" value="Оплата заказа" style="html=1;whiteSpace=wrap;" vertex="1" parent="1">
          <mxGeometry y="1310" width="110" height="50" as="geometry" />
        </mxCell>
        <mxCell id="SgjmKy2x-hNEDJPNq4OX-37" value="Страница услуг" style="html=1;whiteSpace=wrap;" vertex="1" parent="1">
          <mxGeometry y="1090" width="110" height="50" as="geometry" />
        </mxCell>
        <mxCell id="SgjmKy2x-hNEDJPNq4OX-38" value="Страница оформления заказа" style="html=1;whiteSpace=wrap;" vertex="1" parent="1">
          <mxGeometry y="1210" width="110" height="50" as="geometry" />
        </mxCell>
        <mxCell id="SgjmKy2x-hNEDJPNq4OX-39" value="" style="endArrow=classic;html=1;rounded=0;exitX=0.447;exitY=1.006;exitDx=0;exitDy=0;exitPerimeter=0;entryX=0.5;entryY=0;entryDx=0;entryDy=0;" edge="1" parent="1" source="SgjmKy2x-hNEDJPNq4OX-27" target="SgjmKy2x-hNEDJPNq4OX-37">
          <mxGeometry width="50" height="50" relative="1" as="geometry">
            <mxPoint x="250" y="1120" as="sourcePoint" />
            <mxPoint x="300" y="1070" as="targetPoint" />
          </mxGeometry>
        </mxCell>
        <mxCell id="SgjmKy2x-hNEDJPNq4OX-40" value="" style="endArrow=classic;html=1;rounded=0;exitX=1;exitY=1;exitDx=0;exitDy=0;entryX=0;entryY=0.5;entryDx=0;entryDy=0;" edge="1" parent="1" source="SgjmKy2x-hNEDJPNq4OX-27" target="SgjmKy2x-hNEDJPNq4OX-34">
          <mxGeometry width="50" height="50" relative="1" as="geometry">
            <mxPoint x="230" y="1200" as="sourcePoint" />
            <mxPoint x="280" y="1150" as="targetPoint" />
          </mxGeometry>
        </mxCell>
        <mxCell id="SgjmKy2x-hNEDJPNq4OX-41" value="" style="endArrow=classic;html=1;rounded=0;exitX=0.558;exitY=0.983;exitDx=0;exitDy=0;exitPerimeter=0;entryX=0.029;entryY=0.09;entryDx=0;entryDy=0;entryPerimeter=0;" edge="1" parent="1" source="SgjmKy2x-hNEDJPNq4OX-33" target="SgjmKy2x-hNEDJPNq4OX-35">
          <mxGeometry width="50" height="50" relative="1" as="geometry">
            <mxPoint x="230" y="1130" as="sourcePoint" />
            <mxPoint x="280" y="1080" as="targetPoint" />
          </mxGeometry>
        </mxCell>
        <mxCell id="SgjmKy2x-hNEDJPNq4OX-43" value="" style="endArrow=classic;html=1;rounded=0;exitX=0.356;exitY=1.034;exitDx=0;exitDy=0;exitPerimeter=0;" edge="1" parent="1" source="SgjmKy2x-hNEDJPNq4OX-34" target="SgjmKy2x-hNEDJPNq4OX-35">
          <mxGeometry width="50" height="50" relative="1" as="geometry">
            <mxPoint x="230" y="1130" as="sourcePoint" />
            <mxPoint x="280" y="1080" as="targetPoint" />
          </mxGeometry>
        </mxCell>
        <mxCell id="SgjmKy2x-hNEDJPNq4OX-44" value="" style="endArrow=classic;html=1;rounded=0;exitX=0.455;exitY=1;exitDx=0;exitDy=0;exitPerimeter=0;entryX=0.455;entryY=0;entryDx=0;entryDy=0;entryPerimeter=0;" edge="1" parent="1" source="SgjmKy2x-hNEDJPNq4OX-37" target="SgjmKy2x-hNEDJPNq4OX-38">
          <mxGeometry width="50" height="50" relative="1" as="geometry">
            <mxPoint x="250" y="1200" as="sourcePoint" />
            <mxPoint x="300" y="1150" as="targetPoint" />
          </mxGeometry>
        </mxCell>
        <mxCell id="SgjmKy2x-hNEDJPNq4OX-45" value="" style="endArrow=classic;html=1;rounded=0;exitX=0.451;exitY=1.014;exitDx=0;exitDy=0;exitPerimeter=0;entryX=1;entryY=0.629;entryDx=0;entryDy=0;entryPerimeter=0;" edge="1" parent="1" source="SgjmKy2x-hNEDJPNq4OX-35" target="SgjmKy2x-hNEDJPNq4OX-38">
          <mxGeometry width="50" height="50" relative="1" as="geometry">
            <mxPoint x="250" y="1200" as="sourcePoint" />
            <mxPoint x="300" y="1150" as="targetPoint" />
          </mxGeometry>
        </mxCell>
        <mxCell id="SgjmKy2x-hNEDJPNq4OX-46" value="" style="endArrow=classic;html=1;rounded=0;exitX=0.5;exitY=1;exitDx=0;exitDy=0;entryX=0.5;entryY=0;entryDx=0;entryDy=0;" edge="1" parent="1" source="SgjmKy2x-hNEDJPNq4OX-38" target="SgjmKy2x-hNEDJPNq4OX-36">
          <mxGeometry width="50" height="50" relative="1" as="geometry">
            <mxPoint x="230" y="1250" as="sourcePoint" />
            <mxPoint x="280" y="1200" as="targetPoint" />
          </mxGeometry>
        </mxCell>
        <mxCell id="SgjmKy2x-hNEDJPNq4OX-47" value="Личный профиль авторизированного художника" style="html=1;whiteSpace=wrap;" vertex="1" parent="1">
          <mxGeometry x="370" y="880" width="110" height="50" as="geometry" />
        </mxCell>
        <mxCell id="SgjmKy2x-hNEDJPNq4OX-48" value="" style="endArrow=classic;html=1;rounded=0;exitX=0.5;exitY=0;exitDx=0;exitDy=0;entryX=0;entryY=0.5;entryDx=0;entryDy=0;" edge="1" parent="1" source="SgjmKy2x-hNEDJPNq4OX-30" target="SgjmKy2x-hNEDJPNq4OX-47">
          <mxGeometry width="50" height="50" relative="1" as="geometry">
            <mxPoint x="460" y="1000" as="sourcePoint" />
            <mxPoint x="510" y="950" as="targetPoint" />
          </mxGeometry>
        </mxCell>
        <mxCell id="SgjmKy2x-hNEDJPNq4OX-49" value="Страница изменения статуса заказов" style="html=1;whiteSpace=wrap;" vertex="1" parent="1">
          <mxGeometry x="370" y="980" width="110" height="50" as="geometry" />
        </mxCell>
        <mxCell id="SgjmKy2x-hNEDJPNq4OX-50" value="" style="endArrow=classic;html=1;rounded=0;exitX=0.5;exitY=1;exitDx=0;exitDy=0;" edge="1" parent="1" source="SgjmKy2x-hNEDJPNq4OX-47">
          <mxGeometry width="50" height="50" relative="1" as="geometry">
            <mxPoint x="460" y="1000" as="sourcePoint" />
            <mxPoint x="425" y="980" as="targetPoint" />
          </mxGeometry>
        </mxCell>
        <mxCell id="SgjmKy2x-hNEDJPNq4OX-51" value="Страница изменения данных профиля" style="html=1;whiteSpace=wrap;" vertex="1" parent="1">
          <mxGeometry x="530" y="880" width="110" height="50" as="geometry" />
        </mxCell>
        <mxCell id="SgjmKy2x-hNEDJPNq4OX-52" value="" style="endArrow=classic;html=1;rounded=0;exitX=1;exitY=0.5;exitDx=0;exitDy=0;entryX=0;entryY=0.5;entryDx=0;entryDy=0;" edge="1" parent="1" source="SgjmKy2x-hNEDJPNq4OX-47" target="SgjmKy2x-hNEDJPNq4OX-51">
          <mxGeometry width="50" height="50" relative="1" as="geometry">
            <mxPoint x="460" y="1000" as="sourcePoint" />
            <mxPoint x="510" y="950" as="targetPoint" />
          </mxGeometry>
        </mxCell>
      </root>
    </mxGraphModel>
  </diagram>
</mxfile>
